<?xml version="1.0" encoding="utf-8"?>
<!-- Generator: Adobe Illustrator 18.1.1, SVG Export Plug-In . SVG Version: 6.00 Build 0)  -->
<svg version="1.1" id="sun" xmlns="http://www.w3.org/2000/svg" xmlns:xlink="http://www.w3.org/1999/xlink" x="0px" y="0px"
	 viewBox="0 0 100 100" enable-background="new 0 0 100 100" xml:space="preserve">
<g>
	<path fill="#ffffff" d="M50,67.6c-9.2,0-16.6-7.5-16.6-16.6c0-9.2,7.5-16.6,16.6-16.6c9.2,0,16.6,7.5,16.6,16.6
		C66.6,60.2,59.2,67.6,50,67.6z M50,40c-6.1,0-11,4.9-11,11c0,6.1,4.9,11,11,11c6.1,0,11-4.9,11-11C61,44.9,56.1,40,50,40z"/>

	<path fill="#ffffff" d="M50,30.6c-1.6,0-2.8-1.3-2.8-2.8v-4.1c0-1.6,1.3-2.8,2.8-2.8c1.6,0,2.8,1.3,2.8,2.8v4.1
		C52.8,29.4,51.6,30.6,50,30.6z"/>

	<path fill="#ffffff" d="M33.6,37.4c-0.7,0-1.4-0.3-2-0.8l-2.9-2.9c-1.1-1.1-1.1-2.9,0-4c1.1-1.1,2.9-1.1,4,0l2.9,2.9
		c1.1,1.1,1.1,2.9,0,4C35,37.1,34.3,37.4,33.6,37.4z"/>

	<path fill="#ffffff" d="M26.8,53.8h-4.1c-1.6,0-2.8-1.3-2.8-2.8c0-1.6,1.3-2.8,2.8-2.8h4.1c1.6,0,2.8,1.3,2.8,2.8
		C29.6,52.6,28.4,53.8,26.8,53.8z"/>

	<path fill="#ffffff" d="M30.7,73.1c-0.7,0-1.4-0.3-2-0.8c-1.1-1.1-1.1-2.9,0-4l2.9-2.9c1.1-1.1,2.9-1.1,4,0c1.1,1.1,1.1,2.9,0,4
		l-2.9,2.9C32.1,72.8,31.4,73.1,30.7,73.1z"/>

	<path fill="#ffffff" d="M50,81.1c-1.6,0-2.8-1.3-2.8-2.8v-4.1c0-1.6,1.3-2.8,2.8-2.8c1.6,0,2.8,1.3,2.8,2.8v4.1
		C52.8,79.9,51.6,81.1,50,81.1z"/>

	<path fill="#ffffff" d="M69.3,73.1c-0.7,0-1.4-0.3-2-0.8l-2.9-2.9c-1.1-1.1-1.1-2.9,0-4s2.9-1.1,4,0l2.9,2.9c1.1,1.1,1.1,2.9,0,4
		C70.7,72.8,70,73.1,69.3,73.1z"/>

	<path fill="#ffffff" d="M77.3,53.8h-4.1c-1.6,0-2.8-1.3-2.8-2.8c0-1.6,1.3-2.8,2.8-2.8h4.1c1.6,0,2.8,1.3,2.8,2.8
		C80.1,52.6,78.9,53.8,77.3,53.8z"/>

	<path fill="#ffffff" d="M66.4,37.4c-0.7,0-1.4-0.3-2-0.8c-1.1-1.1-1.1-2.9,0-4l2.9-2.9c1.1-1.1,2.9-1.1,4,0c1.1,1.1,1.1,2.9,0,4
		l-2.9,2.9C67.8,37.1,67.1,37.4,66.4,37.4z"/>
</g>
</svg>
