<?xml version="1.0" encoding="utf-8"?>
<!-- Generator: Adobe Illustrator 18.1.1, SVG Export Plug-In . SVG Version: 6.00 Build 0)  -->
<svg version="1.1" id="Ebene_1" xmlns="http://www.w3.org/2000/svg" xmlns:xlink="http://www.w3.org/1999/xlink" x="0px" y="0px"
	 viewBox="0 0 100 100" enable-background="new 0 0 100 100" xml:space="preserve">
<g>
	<path fill="#ffffff" d="M51,71.2c-11.2,0-20.3-9.1-20.3-20.3c0-9.1,6.1-17.1,14.9-19.6c0.8-0.2,1.7,0,2.3,0.5
		c0.7,0.5,1,1.4,0.9,2.2c0,0.4-0.1,0.8-0.1,1.3c0,8.4,6.8,15.2,15.2,15.2c1.3,0,2.7-0.2,4.1-0.6c0.8-0.2,1.7,0,2.3,0.5
		c0.7,0.5,1,1.4,0.9,2.2C70.4,63,61.5,71.2,51,71.2z M43.7,37.6c-4.8,2.6-7.9,7.7-7.9,13.3C35.8,59.2,42.6,66,51,66
		c6.6,0,12.4-4.4,14.4-10.5C54.4,56.4,44.9,48.2,43.7,37.6z"/>
</g>
</svg>
