<?xml version="1.0" encoding="utf-8"?>
<!-- Generator: Adobe Illustrator 18.1.1, SVG Export Plug-In . SVG Version: 6.00 Build 0)  -->
<svg version="1.1" id="Ebene_1" xmlns="http://www.w3.org/2000/svg" xmlns:xlink="http://www.w3.org/1999/xlink" x="0px" y="0px"
	 viewBox="0 0 100 100" enable-background="new 0 0 100 100" xml:space="preserve">
<g>
		<path fill="#ffffff" d="M66.8,75.4H37.3c-9.4,0-17-7.6-17-17c0-9.4,7.6-17,17-17c0.8,0,1.6,0.1,2.5,0.2c3.4-5.3,9.2-8.4,15.5-8.4
			c10.2,0,18.6,8.3,18.6,18.6c0,0.4,0,0.8,0,1.2c3.3,2.3,5.4,6.1,5.4,10.2C79.2,69.8,73.6,75.4,66.8,75.4z M37.3,47
			c-6.3,0-11.4,5.1-11.4,11.4S31,69.7,37.3,69.7h29.6c3.7,0,6.7-3,6.7-6.7c0-2.6-1.5-5-3.9-6.1c-1.2-0.5-1.8-1.8-1.6-3
			c0.1-0.8,0.2-1.5,0.2-2.2c0-7.1-5.8-12.9-12.9-12.9c-5,0-9.4,2.8-11.6,7.2c-0.6,1.2-2,1.8-3.3,1.5C39.3,47.2,38.3,47,37.3,47z"/>

		<path fill="#ffffff" d="M23.1,61.1c-1.6,0-2.8-1.3-2.8-2.8c0-9.4,7.6-17,17-17c3.9,0,7.3,2,9.5,3.5c1.3,0.9,1.6,2.6,0.8,3.9
			c-0.9,1.3-2.6,1.6-3.9,0.8c-1.6-1.1-4-2.5-6.3-2.5c-6.3,0-11.4,5.1-11.4,11.4C25.9,59.8,24.6,61.1,23.1,61.1z"/>


		<path fill="#ffffff" d="M31.3,47.7c-0.9,0-1.8-0.4-2.3-1.2c-1.5-2.2-1.8-4.1-1.8-6.4c0-6.9,5.6-12.5,12.5-12.5
			c5.6,0,10.4,3.6,12,8.9c0.4,1.5-0.4,3.1-1.9,3.5c-1.5,0.4-3.1-0.4-3.5-1.9c-0.9-2.9-3.6-4.9-6.6-4.9c-3.8,0-6.9,3.1-6.9,6.9
			c0,1.6,0.2,2.3,0.8,3.2c0.9,1.3,0.5,3-0.8,3.9C32.4,47.6,31.8,47.7,31.3,47.7z"/>
	
		<path fill="#ffffff" d="M39.7,24.2c-1.6,0-2.8-1.3-2.8-2.8v-2.9c0-1.6,1.3-2.8,2.8-2.8s2.8,1.3,2.8,2.8v2.9
			C42.5,23,41.2,24.2,39.7,24.2z"/>
	
		<path fill="#ffffff" d="M26.5,29.7c-0.7,0-1.4-0.3-2-0.8l-2-2c-1.1-1.1-1.1-2.9,0-4c1.1-1.1,2.9-1.1,4,0l2,2c1.1,1.1,1.1,2.9,0,4
			C27.9,29.4,27.2,29.7,26.5,29.7z"/>
	
		<path fill="#ffffff" d="M21,42.9h-2.9c-1.6,0-2.8-1.3-2.8-2.8s1.3-2.8,2.8-2.8H21c1.6,0,2.8,1.3,2.8,2.8S22.5,42.9,21,42.9z"/>
	
		<path fill="#ffffff" d="M52.9,29.7c-0.7,0-1.4-0.3-2-0.8c-1.1-1.1-1.1-2.9,0-4l2-2c1.1-1.1,2.9-1.1,4,0s1.1,2.9,0,4l-2,2
			C54.3,29.4,53.6,29.7,52.9,29.7z"/>
	</g>
</svg>
