<?xml version="1.0" encoding="utf-8"?>
<!-- Generator: Adobe Illustrator 18.1.1, SVG Export Plug-In . SVG Version: 6.00 Build 0)  -->
<svg version="1.1" id="Ebene_1" xmlns="http://www.w3.org/2000/svg" xmlns:xlink="http://www.w3.org/1999/xlink" x="0px" y="0px"
	 viewBox="0 0 100 100" enable-background="new 0 0 100 100" xml:space="preserve">
<g>
	<path fill="#ffffff" d="M67.1,74H37.5c-9.4,0-17-7.6-17-17c0-1.6,1.3-2.8,2.8-2.8s2.8,1.3,2.8,2.8c0,6.3,5.1,11.4,11.4,11.4h29.6
		c3.7,0,6.7-3,6.7-6.7c0-2.6-1.5-5-3.9-6.1c-1.2-0.5-1.8-1.8-1.6-3c0.1-0.8,0.2-1.5,0.2-2.2c0-7.1-5.8-12.9-12.9-12.9
		c-4.1,0-7.9,1.9-10.4,5.2c-0.9,1.2-2.7,1.5-3.9,0.6c-1.2-0.9-1.5-2.7-0.6-3.9c3.5-4.7,9-7.5,14.9-7.5c10.2,0,18.6,8.3,18.6,18.6
		c0,0.4,0,0.8,0,1.1c3.3,2.3,5.4,6.1,5.4,10.2C79.4,68.5,73.9,74,67.1,74z"/>

	<path fill="#ffffff" d="M23.3,59.7c-1.6,0-2.8-1.3-2.8-2.8c0-4.1,1.5-8.1,4.2-11.2c1-1.2,2.8-1.3,4-0.3c1.2,1,1.3,2.8,0.3,4
		c-1.8,2.1-2.8,4.7-2.8,7.5C26.1,58.4,24.9,59.7,23.3,59.7z"/>

	<path fill="#ffffff" d="M40.5,59.5c-9.4,0-17-7.6-17-17c0-7.6,5.1-14.4,12.5-16.4c0.9-0.2,1.8,0,2.5,0.5s1.1,1.5,1,2.4
		c0,0.3-0.1,0.6-0.1,1c0,6.3,5.1,11.4,11.4,11.4c1,0,2-0.1,3.1-0.4c0.9-0.2,1.8,0,2.5,0.5c0.7,0.6,1.1,1.5,1,2.4
		C56.8,52.6,49.3,59.5,40.5,59.5z M34.1,33c-3.1,2.1-5,5.6-5,9.4c0,6.3,5.1,11.4,11.4,11.4c4.6,0,8.7-2.8,10.5-6.9
		C42.6,47,35.6,41,34.1,33z"/>
</g>
</svg>
