<?xml version="1.0" encoding="utf-8"?>
<!-- Generator: Adobe Illustrator 18.1.1, SVG Export Plug-In . SVG Version: 6.00 Build 0)  -->
<svg version="1.1" id="Ebene_1" xmlns="http://www.w3.org/2000/svg" xmlns:xlink="http://www.w3.org/1999/xlink" x="0px" y="0px"
	 viewBox="0 0 100 100" enable-background="new 0 0 100 100" xml:space="preserve">
<path fill="#ffffff" d="M60.7,73.3H31.2c-9.4,0-17-7.6-17-17s7.6-17,17-17c0.8,0,1.6,0.1,2.5,0.2c3.4-5.2,9.2-8.4,15.5-8.4
	c10.2,0,18.6,8.3,18.6,18.6c0,0.4,0,0.8,0,1.1C71,53.1,73,56.9,73,61C73,67.8,67.5,73.3,60.7,73.3z M31.2,45
	c-6.3,0-11.3,5.1-11.3,11.3s5.1,11.3,11.3,11.3h29.6c3.7,0,6.7-3,6.7-6.7c0-2.6-1.5-5-3.9-6.1c-1.2-0.5-1.8-1.8-1.6-3
	c0.1-0.8,0.2-1.5,0.2-2.2c0-7.1-5.8-12.9-12.9-12.9c-5,0-9.4,2.8-11.6,7.2c-0.6,1.2-2,1.8-3.3,1.5C33.2,45.1,32.2,45,31.2,45z"/>
<path fill="#ffffff" d="M17,59c-1.6,0-2.8-1.3-2.8-2.8c0-9.4,7.6-17,17-17c3.9,0,7.3,2,9.5,3.5c1.3,0.9,1.6,2.6,0.8,3.9
	c-0.9,1.3-2.6,1.6-3.9,0.8c-1.6-1.1-4-2.5-6.3-2.5c-6.3,0-11.3,5.1-11.3,11.3C19.8,57.8,18.6,59,17,59z"/>

	<path fill="#ffffff" d="M75,63.2c-1.6,0-2.8-1.3-2.8-2.8c0-1.6,1.3-2.8,2.8-2.8c3.7,0,6.7-3,6.7-6.7c0-2.6-1.5-5-3.9-6.1
		c-1.2-0.5-1.8-1.8-1.6-3c0.1-0.8,0.2-1.5,0.2-2.2c0-7.1-5.8-12.9-12.9-12.9c-5,0-9.4,2.8-11.6,7.2c-0.7,1.4-2.4,2-3.8,1.3
		c-1.4-0.7-2-2.4-1.3-3.8C50,24.9,56.4,21,63.5,21C73.7,21,82,29.3,82,39.5c0,0.4,0,0.8,0,1.1c3.3,2.3,5.4,6.1,5.4,10.1
		C87.4,57.6,81.8,63.2,75,63.2z"/>

<path fill="#ffffff" d="M74.6,63.2h-3.8c-1.6,0-2.8-1.3-2.8-2.8c0-1.6,1.3-2.8,2.8-2.8h3.8c1.6,0,2.8,1.3,2.8,2.8
	C77.4,61.9,76.1,63.2,74.6,63.2z"/>
</svg>
