<?xml version="1.0" encoding="utf-8"?>
<!-- Generator: Adobe Illustrator 18.1.1, SVG Export Plug-In . SVG Version: 6.00 Build 0)  -->
<svg version="1.1" id="Ebene_1" xmlns="http://www.w3.org/2000/svg" xmlns:xlink="http://www.w3.org/1999/xlink" x="0px" y="0px"
	 viewBox="0 0 100 100" enable-background="new 0 0 100 100" xml:space="preserve">
<g>
	<path fill="#ffffff" d="M67.1,71.1c-1.6,0-2.8-1.3-2.8-2.8s1.3-2.8,2.8-2.8c3.7,0,6.7-3,6.7-6.7c0-2.6-1.5-5-3.9-6.1
		c-1.2-0.5-1.8-1.8-1.6-3c0.1-0.8,0.2-1.5,0.2-2.2c0-7.1-5.8-12.9-12.9-12.9c-5,0-9.4,2.8-11.6,7.2c-0.6,1.2-2,1.8-3.3,1.5
		c-1-0.3-2.1-0.4-3.1-0.4c-6.3,0-11.4,5.1-11.4,11.4c0,6.3,5.1,11.4,11.4,11.4c1.6,0,2.8,1.3,2.8,2.8s-1.3,2.8-2.8,2.8
		c-9.4,0-17-7.6-17-17c0-9.4,7.6-17,17-17c0.8,0,1.6,0.1,2.5,0.2c3.4-5.3,9.2-8.4,15.5-8.4c10.2,0,18.6,8.3,18.6,18.6
		c0,0.4,0,0.8,0,1.2c3.3,2.3,5.4,6.1,5.4,10.2C79.5,65.6,73.9,71.1,67.1,71.1z"/>

	<path fill="#ffffff" d="M23.4,56.8c-1.6,0-2.8-1.3-2.8-2.8c0-9.4,7.6-17,17-17c3.9,0,7.3,2,9.5,3.5c1.3,0.9,1.6,2.6,0.8,3.9
		c-0.9,1.3-2.6,1.6-3.9,0.8c-1.6-1.1-4-2.5-6.3-2.5c-6.3,0-11.4,5.1-11.4,11.4C26.2,55.6,24.9,56.8,23.4,56.8z"/>

	<path fill="#ffffff" d="M51.9,82.7c-1.6,0-2.8-1.3-2.8-2.8V68.3c0-1.6,1.3-2.8,2.8-2.8s2.8,1.3,2.8,2.8v11.6
		C54.7,81.4,53.4,82.7,51.9,82.7z"/>

	<path fill="#ffffff" d="M59.4,75.9c-1.6,0-2.8-1.3-2.8-2.8v-4.8c0-1.6,1.3-2.8,2.8-2.8s2.8,1.3,2.8,2.8v4.8
		C62.2,74.7,60.9,75.9,59.4,75.9z"/>

	<path fill="#ffffff" d="M44.4,75.9c-1.6,0-2.8-1.3-2.8-2.8v-4.8c0-1.6,1.3-2.8,2.8-2.8s2.8,1.3,2.8,2.8v4.8
		C47.2,74.7,45.9,75.9,44.4,75.9z"/>
</g>
</svg>
