<?xml version="1.0" encoding="utf-8"?>
<!-- Generator: Adobe Illustrator 18.1.1, SVG Export Plug-In . SVG Version: 6.00 Build 0)  -->
<svg version="1.1" id="Ebene_1" xmlns="http://www.w3.org/2000/svg" xmlns:xlink="http://www.w3.org/1999/xlink" x="0px" y="0px"
	 viewBox="0 0 100 100" enable-background="new 0 0 100 100" xml:space="preserve">
<g>
	<path fill="#ffffff" d="M71.5,71.5c-1.6,0-2.8-1.3-2.8-2.8s1.3-2.8,2.8-2.8c3.7,0,6.7-3,6.7-6.7c0-2.6-1.5-5-3.9-6.1
		c-1.2-0.5-1.8-1.8-1.6-3c0.1-0.8,0.2-1.5,0.2-2.2c0-7.1-5.8-12.9-12.9-12.9c-5,0-9.4,2.8-11.6,7.2c-0.6,1.2-2,1.8-3.3,1.5
		c-1-0.3-2.1-0.4-3.1-0.4c-6.3,0-11.4,5.1-11.4,11.4s5.1,11.4,11.4,11.4c1.6,0,2.8,1.3,2.8,2.8s-1.3,2.8-2.8,2.8
		c-9.4,0-17-7.6-17-17c0-9.4,7.6-17,17-17c0.8,0,1.6,0.1,2.5,0.2c3.4-5.3,9.2-8.4,15.5-8.4c10.2,0,18.6,8.3,18.6,18.6
		c0,0.4,0,0.8,0,1.2c3.3,2.3,5.4,6.1,5.4,10.2C83.8,65.9,78.3,71.5,71.5,71.5z"/>

	<path fill="#ffffff" d="M27.7,57.2c-1.6,0-2.8-1.3-2.8-2.8c0-9.4,7.6-17,17-17c3.9,0,7.3,2,9.5,3.5c1.3,0.9,1.6,2.6,0.8,3.9
		c-0.9,1.3-2.6,1.6-3.9,0.8c-1.6-1.1-4-2.5-6.3-2.5c-6.3,0-11.4,5.1-11.4,11.4C30.5,55.9,29.3,57.2,27.7,57.2z"/>

		<path fill="#ffffff" d="M35.9,43.8c-0.9,0-1.8-0.4-2.3-1.2c-1.5-2.2-1.8-4.1-1.8-6.4c0-6.9,5.6-12.5,12.5-12.5
			c5.6,0,10.4,3.6,12,8.9c0.5,1.5-0.4,3.1-1.9,3.5c-1.5,0.4-3.1-0.4-3.5-1.9c-0.9-2.9-3.6-4.9-6.6-4.9c-3.8,0-6.9,3.1-6.9,6.9
			c0,1.6,0.2,2.3,0.8,3.2c0.9,1.3,0.5,3-0.8,3.9C37,43.7,36.5,43.8,35.9,43.8z"/>

		<path fill="#ffffff" d="M44.3,20.3c-1.6,0-2.8-1.3-2.8-2.8v-2.9c0-1.6,1.3-2.8,2.8-2.8s2.8,1.3,2.8,2.8v2.9
			C47.1,19.1,45.9,20.3,44.3,20.3z"/>
	
		<path fill="#ffffff" d="M31.1,25.8c-0.7,0-1.4-0.3-2-0.8l-2-2c-1.1-1.1-1.1-2.9,0-4c1.1-1.1,2.9-1.1,4,0l2,2c1.1,1.1,1.1,2.9,0,4
			C32.6,25.5,31.8,25.8,31.1,25.8z"/>
	
		<path fill="#ffffff" d="M25.6,39h-2.9c-1.6,0-2.8-1.3-2.8-2.8s1.3-2.8,2.8-2.8h2.9c1.6,0,2.8,1.3,2.8,2.8S27.2,39,25.6,39z"/>
	
		<path fill="#ffffff" d="M57.5,25.8c-0.7,0-1.4-0.3-2-0.8c-1.1-1.1-1.1-2.9,0-4l2-2c1.1-1.1,2.9-1.1,4,0s1.1,2.9,0,4l-2,2
			C59,25.5,58.3,25.8,57.5,25.8z"/>

	<path fill="#ffffff" d="M56.4,83c-1.6,0-2.8-1.3-2.8-2.8V68.7c0-1.6,1.3-2.8,2.8-2.8s2.8,1.3,2.8,2.8v11.6
		C59.2,81.8,57.9,83,56.4,83z"/>

	<path fill="#ffffff" d="M63.9,76.3c-1.6,0-2.8-1.3-2.8-2.8v-4.8c0-1.6,1.3-2.8,2.8-2.8s2.8,1.3,2.8,2.8v4.8
		C66.7,75,65.4,76.3,63.9,76.3z"/>

	<path fill="#ffffff" d="M48.9,76.3c-1.6,0-2.8-1.3-2.8-2.8v-4.8c0-1.6,1.3-2.8,2.8-2.8s2.8,1.3,2.8,2.8v4.8
		C51.7,75,50.4,76.3,48.9,76.3z"/>
</g>
</svg>
