<?xml version="1.0" encoding="utf-8"?>
<!-- Generator: Adobe Illustrator 18.1.1, SVG Export Plug-In . SVG Version: 6.00 Build 0)  -->
<svg version="1.1" id="Ebene_1" xmlns="http://www.w3.org/2000/svg" xmlns:xlink="http://www.w3.org/1999/xlink" x="0px" y="0px"
	 viewBox="0 0 100 100" enable-background="new 0 0 100 100" xml:space="preserve">
<path fill="#ffffff" d="M70.3,75.2c-1.6,0-2.8-1.3-2.8-2.8s1.3-2.8,2.8-2.8c3.7,0,6.7-3,6.7-6.7c0-2.6-1.5-5-3.9-6.1
	c-1.2-0.5-1.8-1.8-1.6-3c0.1-0.8,0.2-1.5,0.2-2.2c0-7.1-5.8-12.9-12.9-12.9c-5,0-9.4,2.8-11.6,7.2c-0.6,1.2-2,1.8-3.3,1.5
	c-1-0.3-2.1-0.4-3.1-0.4c-6.3,0-11.3,5.1-11.3,11.3s5.1,11.3,11.3,11.3c1.6,0,2.8,1.3,2.8,2.8s-1.3,2.8-2.8,2.8c-9.4,0-17-7.6-17-17
	s7.6-17,17-17c0.8,0,1.6,0.1,2.5,0.2c3.4-5.2,9.2-8.4,15.5-8.4c10.2,0,18.6,8.3,18.6,18.6c0,0.4,0,0.8,0,1.1
	c3.3,2.3,5.4,6.1,5.4,10.1C82.6,69.6,77.1,75.2,70.3,75.2z"/>
<path fill="#ffffff" d="M26.6,60.9c-1.6,0-2.8-1.3-2.8-2.8c0-9.4,7.6-17,17-17c3.9,0,7.3,2,9.5,3.5c1.3,0.9,1.6,2.6,0.8,3.9
	c-0.9,1.3-2.6,1.6-3.9,0.8c-1.6-1.1-4-2.5-6.3-2.5c-6.3,0-11.3,5.1-11.3,11.3C29.4,59.6,28.1,60.9,26.6,60.9z"/>
<path fill="#ffffff" d="M51.1,87.9c-0.5,0-1-0.1-1.5-0.4c-1.3-0.8-1.7-2.6-0.9-3.9l5.1-8h-2.7c-1,0-2-0.6-2.5-1.5
	c-0.5-0.9-0.4-2,0.2-2.9l7.8-11.2c0.9-1.3,2.6-1.6,3.9-0.7c1.3,0.9,1.6,2.6,0.7,3.9l-4.7,6.8H59c1,0,2,0.6,2.5,1.5
	c0.5,0.9,0.5,2-0.1,2.9l-7.8,12.3C53,87.4,52.1,87.9,51.1,87.9z"/>
	<path fill="#ffffff" d="M34.3,46.2c-0.9,0-1.8-0.4-2.3-1.2c-1.5-2.2-1.8-4.1-1.8-6.4c0-6.9,5.6-12.5,12.5-12.5
		c5.6,0,10.4,3.6,12,8.9c0.5,1.5-0.4,3.1-1.9,3.5c-1.5,0.4-3.1-0.4-3.5-1.9c-0.9-2.9-3.6-4.9-6.6-4.9c-3.8,0-6.9,3.1-6.9,6.9
		c0,1.6,0.2,2.3,0.8,3.2c0.9,1.3,0.5,3-0.8,3.9C35.4,46.1,34.8,46.2,34.3,46.2z"/>

	<path fill="#ffffff" d="M42.7,22.7c-1.6,0-2.8-1.3-2.8-2.8V17c0-1.6,1.3-2.8,2.8-2.8s2.8,1.3,2.8,2.8v2.9
		C45.5,21.5,44.3,22.7,42.7,22.7z"/>

	<path fill="#ffffff" d="M29.5,28.2c-0.7,0-1.4-0.3-2-0.8l-2-2c-1.1-1.1-1.1-2.9,0-4c1.1-1.1,2.9-1.1,4,0l2,2c1.1,1.1,1.1,2.9,0,4
		C30.9,27.9,30.2,28.2,29.5,28.2z"/>

	<path fill="#ffffff" d="M24,41.4h-2.9c-1.6,0-2.8-1.3-2.8-2.8c0-1.6,1.3-2.8,2.8-2.8H24c1.6,0,2.8,1.3,2.8,2.8
		C26.8,40.1,25.6,41.4,24,41.4z"/>

	<path fill="#ffffff" d="M55.9,28.2c-0.7,0-1.4-0.3-2-0.8c-1.1-1.1-1.1-2.9,0-4l2-2c1.1-1.1,2.9-1.1,4,0c1.1,1.1,1.1,2.9,0,4l-2,2
		C57.3,27.9,56.6,28.2,55.9,28.2z"/>

</svg>
