<?xml version="1.0" encoding="utf-8"?>
<!-- Generator: Adobe Illustrator 18.1.1, SVG Export Plug-In . SVG Version: 6.00 Build 0)  -->
<svg version="1.1" id="Ebene_1" xmlns="http://www.w3.org/2000/svg" xmlns:xlink="http://www.w3.org/1999/xlink" x="0px" y="0px"
	 viewBox="0 0 100 100" enable-background="new 0 0 100 100" xml:space="preserve">
<path fill="#ffffff" d="M66.4,68.3c-1.6,0-2.8-1.3-2.8-2.8c0-1.6,1.3-2.8,2.8-2.8c3.7,0,6.7-3,6.7-6.7c0-2.6-1.5-5-3.9-6.1
	c-1.2-0.5-1.8-1.8-1.6-3c0.1-0.8,0.2-1.5,0.2-2.2c0-7.1-5.8-12.9-12.9-12.9c-4.1,0-7.9,1.9-10.3,5.2c-0.9,1.2-2.7,1.5-3.9,0.6
	c-1.2-0.9-1.5-2.7-0.6-3.9c3.5-4.7,9-7.5,14.8-7.5c10.2,0,18.6,8.3,18.6,18.6c0,0.4,0,0.8,0,1.1c3.3,2.3,5.4,6.1,5.4,10.1
	C78.7,62.8,73.2,68.3,66.4,68.3z"/>
<path fill="#ffffff" d="M36.8,68.3c-9.4,0-17-7.6-17-17c0-1.6,1.3-2.8,2.8-2.8c1.6,0,2.8,1.3,2.8,2.8c0,6.3,5.1,11.3,11.3,11.3
	c1.6,0,2.8,1.3,2.8,2.8C39.6,67.1,38.3,68.3,36.8,68.3z"/>
<path fill="#ffffff" d="M22.6,54.1c-1.6,0-2.8-1.3-2.8-2.8c0-4.1,1.5-8.1,4.2-11.2c1-1.2,2.8-1.3,4-0.3c1.2,1,1.3,2.8,0.3,4
	c-1.8,2.1-2.8,4.7-2.8,7.5C25.4,52.8,24.2,54.1,22.6,54.1z"/>
<path fill="#ffffff" d="M39.8,53.9c-9.4,0-17-7.6-17-17c0-7.6,5.1-14.3,12.5-16.4c0.9-0.2,1.8,0,2.5,0.5c0.7,0.6,1.1,1.5,1,2.4
	c0,0.3-0.1,0.6-0.1,1c0,6.3,5.1,11.4,11.4,11.4c1,0,2-0.1,3.1-0.4c0.9-0.2,1.8,0,2.5,0.5c0.7,0.6,1.1,1.5,1,2.4
	C56.1,47,48.6,53.9,39.8,53.9z M33.4,27.4c-3.1,2.1-5,5.6-5,9.4c0,6.3,5.1,11.4,11.4,11.4c4.6,0,8.7-2.8,10.4-6.9c0,0-0.1,0-0.1,0
	C41.8,41.4,34.9,35.3,33.4,27.4z"/>
<path fill="#ffffff" d="M47.4,81.2c-0.5,0-1-0.1-1.5-0.4c-1.3-0.8-1.7-2.6-0.9-3.9l5.1-8h-2.7c-1,0-2-0.6-2.5-1.5
	c-0.5-0.9-0.4-2,0.2-2.9l7.8-11.2c0.9-1.3,2.6-1.6,3.9-0.7c1.3,0.9,1.6,2.6,0.7,3.9l-4.7,6.8h2.4c1,0,2,0.6,2.5,1.5
	c0.5,0.9,0.5,2-0.1,2.9l-7.8,12.3C49.2,80.7,48.3,81.2,47.4,81.2z"/>
</svg>
