<?xml version="1.0" encoding="utf-8"?>
<!-- Generator: Adobe Illustrator 18.1.1, SVG Export Plug-In . SVG Version: 6.00 Build 0)  -->
<svg version="1.1" id="Ebene_1" xmlns="http://www.w3.org/2000/svg" xmlns:xlink="http://www.w3.org/1999/xlink" x="0px" y="0px"
	 viewBox="0 0 100 100" enable-background="new 0 0 100 100" xml:space="preserve">
<path fill="#ffffff" d="M69.1,75.8c-1.6,0-2.8-1.3-2.8-2.8s1.3-2.8,2.8-2.8c3.7,0,6.7-3,6.7-6.7c0-2.6-1.5-5-3.9-6.1
	c-1.2-0.5-1.8-1.8-1.6-3c0.1-0.8,0.2-1.5,0.2-2.2c0-7.1-5.8-12.9-12.9-12.9c-4.9,0-9.4,2.8-11.6,7.2c-0.6,1.2-2,1.8-3.3,1.5
	c-1-0.3-2.1-0.4-3.1-0.4c-6.3,0-11.3,5.1-11.3,11.3s5.1,11.3,11.3,11.3c1.6,0,2.8,1.3,2.8,2.8s-1.3,2.8-2.8,2.8c-9.4,0-17-7.6-17-17
	s7.6-17,17-17c0.8,0,1.6,0.1,2.5,0.2c3.4-5.2,9.2-8.4,15.5-8.4c10.2,0,18.6,8.3,18.6,18.6c0,0.4,0,0.8,0,1.1
	c3.3,2.3,5.4,6.1,5.4,10.1C81.4,70.3,75.9,75.8,69.1,75.8z"/>
<path fill="#ffffff" d="M25.4,61.6c-1.6,0-2.8-1.3-2.8-2.8c0-9.4,7.6-17,17-17c3.9,0,7.3,2,9.5,3.5c1.3,0.9,1.6,2.6,0.8,3.9
	c-0.9,1.3-2.6,1.6-3.9,0.8c-1.6-1.1-4-2.5-6.3-2.5c-6.3,0-11.3,5.1-11.3,11.3C28.2,60.3,26.9,61.6,25.4,61.6z"/>
<circle fill="#ffffff" cx="46.5" cy="73.6" r="2.8"/>
<circle fill="#ffffff" cx="53.9" cy="73.6" r="2.8"/>
<circle fill="#ffffff" cx="50.2" cy="81" r="2.8"/>
<circle fill="#ffffff" cx="50.2" cy="65.1" r="2.8"/>
<circle fill="#ffffff" cx="57.7" cy="81" r="2.8"/>
<circle fill="#ffffff" cx="57.7" cy="65.1" r="2.8"/>
<circle fill="#ffffff" cx="61.2" cy="73.6" r="2.8"/>

	<path fill="#ffffff" d="M31.7,46.5c-0.9,0-1.8-0.4-2.3-1.2c-1.5-2.2-1.8-4.1-1.8-6.4c0-6.9,5.6-12.5,12.5-12.5
		c5.6,0,10.4,3.6,12,8.9c0.5,1.5-0.4,3.1-1.9,3.5c-1.5,0.4-3.1-0.4-3.5-1.9C45.8,34,43.1,32,40.1,32c-3.8,0-6.9,3.1-6.9,6.9
		c0,1.6,0.2,2.3,0.8,3.2c0.9,1.3,0.5,3-0.8,3.9C32.8,46.3,32.2,46.5,31.7,46.5z"/>

	<path fill="#ffffff" d="M40.1,23c-1.6,0-2.8-1.3-2.8-2.8v-2.9c0-1.6,1.3-2.8,2.8-2.8s2.8,1.3,2.8,2.8v2.9
		C42.9,21.7,41.6,23,40.1,23z"/>

	<path fill="#ffffff" d="M26.9,28.5c-0.7,0-1.4-0.3-2-0.8l-2-2c-1.1-1.1-1.1-2.9,0-4c1.1-1.1,2.9-1.1,4,0l2,2c1.1,1.1,1.1,2.9,0,4
		C28.3,28.2,27.6,28.5,26.9,28.5z"/>

	<path fill="#ffffff" d="M21.4,41.7h-2.9c-1.6,0-2.8-1.3-2.8-2.8S17,36,18.5,36h2.9c1.6,0,2.8,1.3,2.8,2.8S23,41.7,21.4,41.7z"/>

	<path fill="#ffffff" d="M53.3,28.5c-0.7,0-1.4-0.3-2-0.8c-1.1-1.1-1.1-2.9,0-4l2-2c1.1-1.1,2.9-1.1,4,0c1.1,1.1,1.1,2.9,0,4l-2,2
		C54.7,28.2,54,28.5,53.3,28.5z"/>

</svg>
