<?xml version="1.0" encoding="utf-8"?>
<!-- Generator: Adobe Illustrator 18.1.1, SVG Export Plug-In . SVG Version: 6.00 Build 0)  -->
<svg version="1.1" id="Ebene_1" xmlns="http://www.w3.org/2000/svg" xmlns:xlink="http://www.w3.org/1999/xlink" x="0px" y="0px"
	 viewBox="0 0 100 100" enable-background="new 0 0 100 100" xml:space="preserve">
<path fill="#ffffff" d="M67.3,70.3c-1.6,0-2.8-1.3-2.8-2.8s1.3-2.8,2.8-2.8c3.7,0,6.7-3,6.7-6.7c0-2.6-1.5-5-3.9-6.1
	c-1.2-0.5-1.8-1.8-1.6-3c0.1-0.8,0.2-1.5,0.2-2.2c0-7.1-5.8-12.9-12.9-12.9c-4.1,0-7.9,1.9-10.3,5.2c-0.9,1.2-2.7,1.5-3.9,0.6
	c-1.2-0.9-1.5-2.7-0.6-3.9c3.5-4.7,9-7.5,14.8-7.5c10.2,0,18.6,8.3,18.6,18.6c0,0.4,0,0.8,0,1.1c3.3,2.3,5.4,6.1,5.4,10.1
	C79.7,64.8,74.1,70.3,67.3,70.3z"/>
<path fill="#ffffff" d="M37.8,70.3c-9.4,0-17-7.6-17-17c0-1.6,1.3-2.8,2.8-2.8c1.6,0,2.8,1.3,2.8,2.8c0,6.3,5.1,11.3,11.3,11.3
	c1.6,0,2.8,1.3,2.8,2.8S39.3,70.3,37.8,70.3z"/>
<path fill="#ffffff" d="M23.6,56.1c-1.6,0-2.8-1.3-2.8-2.8c0-4.1,1.5-8.1,4.2-11.2c1-1.2,2.8-1.3,4-0.3c1.2,1,1.3,2.8,0.3,4
	c-1.8,2.1-2.8,4.7-2.8,7.5C26.4,54.8,25.2,56.1,23.6,56.1z"/>
<path fill="#ffffff" d="M40.8,55.9c-9.4,0-17-7.6-17-17c0-7.6,5.1-14.3,12.5-16.4c0.9-0.2,1.8,0,2.5,0.5c0.7,0.6,1.1,1.5,1,2.4
	c0,0.3-0.1,0.6-0.1,1c0,6.3,5.1,11.4,11.4,11.4c1,0,2-0.1,3.1-0.4c0.9-0.2,1.8,0,2.5,0.5s1.1,1.5,1,2.4C57,49,49.6,55.9,40.8,55.9z
	 M34.4,29.4c-3.1,2.1-5,5.6-5,9.4c0,6.3,5.1,11.4,11.4,11.4c4.6,0,8.7-2.8,10.4-6.9c0,0-0.1,0-0.1,0C42.8,43.4,35.8,37.4,34.4,29.4z
	"/>
<circle fill="#ffffff" cx="45.3" cy="67.6" r="2.8"/>
<circle fill="#ffffff" cx="52.8" cy="67.6" r="2.8"/>
<circle fill="#ffffff" cx="49.1" cy="75" r="2.8"/>
<circle fill="#ffffff" cx="49.1" cy="59.1" r="2.8"/>
<circle fill="#ffffff" cx="56.6" cy="75" r="2.8"/>
<circle fill="#ffffff" cx="56.6" cy="59.1" r="2.8"/>
<circle fill="#ffffff" cx="60" cy="67.6" r="2.8"/>
</svg>
