<?xml version="1.0" encoding="utf-8"?>
<!-- Generator: Adobe Illustrator 18.1.1, SVG Export Plug-In . SVG Version: 6.00 Build 0)  -->
<svg version="1.1" id="Ebene_1" xmlns="http://www.w3.org/2000/svg" xmlns:xlink="http://www.w3.org/1999/xlink" x="0px" y="0px"
	 viewBox="0 0 100 100" enable-background="new 0 0 100 100" xml:space="preserve">

		<path fill="#ffffff" d="M27.8,49.9c-0.5,0-1-0.1-1.5-0.4c-1.3-0.8-1.7-2.5-0.9-3.9c3.5-5.8,10.2-8.9,16.9-7.9
			c3.4-5.3,9.2-8.4,15.5-8.4c9.9,0,18.1,7.7,18.6,17.6c0.1,1.6-1.1,2.9-2.7,2.9c-1.6,0.1-2.9-1.1-2.9-2.7c-0.3-6.9-6-12.3-12.9-12.3
			c-5,0-9.4,2.8-11.6,7.2c-0.6,1.2-2,1.8-3.3,1.5c-5-1.4-10.2,0.7-12.8,5C29.7,49.4,28.8,49.9,27.8,49.9z"/>

	<path fill="#ffffff" d="M72.5,71.1H36.8c-1.6,0-2.8-1.3-2.8-2.8s1.3-2.8,2.8-2.8h35.7c1.6,0,2.8,1.3,2.8,2.8S74,71.1,72.5,71.1z"/>

	<path fill="#ffffff" d="M79,64H28.4c-1.6,0-2.8-1.3-2.8-2.8s1.3-2.8,2.8-2.8H79c1.6,0,2.8,1.3,2.8,2.8S80.6,64,79,64z"/>

	<path fill="#ffffff" d="M77.8,56.9H24.7c-1.6,0-2.8-1.3-2.8-2.8s1.3-2.8,2.8-2.8h53.1c1.6,0,2.8,1.3,2.8,2.8S79.4,56.9,77.8,56.9z"
		/>

</svg>
